# Blender v3.1.2 OBJ File: 'Sketchfab_2020_10_16_10_05_56.blend'
# www.blender.org
mtllib ship3.mtl
o Box001_Mesh
v 4.559135 82.057159 58.657600
v -145.097351 301.019897 -90.998962
v 90.526024 47.318329 40.920403
v -117.117004 340.589966 -63.018646
v 129.035736 102.401360 80.309937
v 96.169075 -47.527588 150.307922
v 140.276062 -23.661118 91.550323
v 177.681519 29.743401 128.673965
v 150.180344 30.344055 204.278809
v 129.419403 96.840179 116.311493
v 156.907135 57.598572 144.716522
v 88.425934 117.678108 142.524384
v 170.202271 174.221436 224.461990
v 207.303040 113.412521 261.562805
v 92.214218 -43.881058 111.016808
v 178.144531 -0.144562 28.887199
v 203.643127 36.935432 55.827599
v 148.984970 45.937706 -7.123344
v 174.483612 83.017639 19.817131
v 109.954445 43.406670 55.502277
v 132.589890 75.788376 78.661545
v 165.856293 66.524963 32.294682
v 151.098083 45.062943 16.700962
v -36.684135 23.730476 17.414371
v -61.872131 -94.875015 -7.773537
v -219.494232 195.806946 -165.395782
v -191.513947 235.377045 -137.415512
v 0.342316 -79.598282 -48.383362
v 39.731892 -24.515274 -9.873680
v 89.481934 -95.494720 40.756248
v 51.860062 -148.194687 2.852631
v -0.117729 -182.209091 53.980904
v 54.925812 -105.854263 109.064697
v 70.015472 -75.274765 88.818085
v -13.534355 -105.326523 -26.642128
v 13.755013 -144.848679 1.564529
v -58.936752 -263.106628 -4.676712
v -101.935089 -210.638168 -47.675087
v 44.921101 -48.564194 -9.531006
v 21.761810 -80.945908 -32.166428
v 68.128662 -71.682510 -65.432854
v 83.722397 -50.220490 -50.674660
v 67.019012 -68.959976 -87.647369
v 96.178535 -115.042175 -51.636894
v 123.119003 -77.962234 -26.138252
v 93.959457 -31.879959 -62.148796
vt 0.257812 0.078125
vt 0.257812 0.140625
vt 0.015625 0.140625
vt 0.015625 0.078125
vt 0.437500 0.187500
vt 0.562500 0.187500
vt 0.562500 0.687500
vt 0.437500 0.687500
vt 0.812500 0.250000
vt 0.812500 0.375000
vt 0.937500 0.375000
vt 0.937500 0.250000
vt 0.875000 1.000000
vt 0.937500 0.500000
vt 0.875000 0.500000
vt 0.625000 0.187500
vt 0.625000 0.687500
vt 0.187500 0.101562
vt 0.125000 0.164062
vt 0.187500 0.164062
vt 0.179688 0.093750
vt 0.179688 0.218750
vt 0.062500 0.218750
vt 0.062500 0.093750
vt 0.687500 0.875000
vt 0.750000 0.875000
vt 0.750000 0.906250
vt 0.750000 0.968750
vt 0.750000 1.000000
vt 0.687500 1.000000
vt 0.117188 0.109375
vt 0.296875 0.132812
vt 0.289062 0.320312
vt 0.203125 0.328125
vt 0.750000 1.000000
vt 0.750000 0.875000
vt 0.875000 0.875000
vt 0.875000 1.000000
vt 0.500000 0.187500
vt 0.500000 0.125000
vt 0.375000 0.187500
vt 0.750000 0.812500
vt 0.875000 0.812500
vt 0.562500 0.687500
vt 0.625000 0.750000
vt 0.562500 0.750000
vt 0.453125 0.703125
vt 0.546875 0.703125
vt 0.546875 0.859375
vt 0.453125 0.859375
vt 0.562500 0.875000
vt 0.562500 1.000000
vt 0.437500 1.000000
vt 0.437500 0.875000
vt 0.812500 0.125000
vt 0.937500 0.125000
vt 0.312500 0.875000
vt 0.312500 1.000000
vt 0.257812 0.187500
vt 0.085938 0.187500
vt 0.085938 0.125000
vt 0.257812 0.125000
vt 0.812500 0.812500
vt 0.812500 0.312500
vt 0.687500 0.312500
vt 0.687500 0.812500
vt 0.312500 0.625000
vt 0.437500 0.625000
vt 0.437500 0.750000
vt 0.312500 0.750000
vt 0.875000 1.000000
vt 0.875000 0.500000
vt 0.937500 0.500000
vt 0.625000 0.312500
vt 0.625000 0.812500
vt 0.062500 0.179688
vt 0.273438 0.179688
vt 0.242188 0.210938
vt 0.304688 0.125000
vt 0.304688 0.187500
vt 0.562500 0.125000
vt 0.500000 0.093750
vt 0.500000 0.125000
vt 0.500000 0.031250
vt 0.562500 0.000000
vt 0.500000 0.000000
vt 0.257812 0.039062
vt 0.304688 0.039062
vt 0.500000 0.000000
vt 0.375000 0.000000
vt 0.375000 0.125000
vt 0.500000 0.125000
vt 0.500000 0.125000
vt 0.375000 0.187500
vt 0.500000 0.187500
vt 0.750000 0.812500
vt 0.750000 0.875000
vt 0.875000 0.812500
vt 0.562500 0.687500
vt 0.562500 0.750000
vt 0.625000 0.750000
vt 0.796875 0.296875
vt 0.796875 0.140625
vt 0.703125 0.140625
vt 0.703125 0.296875
vt 0.687500 0.125000
vt 0.812500 0.125000
vt 0.812500 0.000000
vt 0.687500 0.000000
vt 0.437500 0.875000
vt 0.312500 0.875000
vt 0.937500 0.125000
vt 0.937500 0.000000
vt 0.195312 0.750000
vt 0.312500 0.750000
vt 0.187500 0.875000
vt 0.187500 1.000000
vt 0.195312 0.750000
vt 0.195312 0.625000
vt 0.312500 0.625000
vt 0.046875 0.289062
vt 0.046875 0.039062
vt 0.171875 0.039062
vt 0.171875 0.289062
vn -0.7071 0.0001 0.7071
vn -0.7072 -0.0001 0.7070
vn -0.7071 0.0000 0.7071
vn 0.5968 0.1427 -0.7896
vn 0.6999 -0.6662 0.2577
vn -0.4026 -0.6879 -0.6039
vn 0.6126 0.7612 0.2129
vn -0.8264 -0.5623 0.0310
vn -0.7071 0.0002 0.7071
vn -0.7073 -0.0002 0.7069
vn 0.5123 0.8496 0.1258
vn 0.8393 0.4522 0.3017
vn 0.8047 0.5903 0.0624
vn -0.7076 -0.0007 0.7066
vn 0.8460 0.2318 -0.4801
vn 0.8568 -0.4986 -0.1314
vn 0.0330 0.8069 -0.5898
vn 0.3429 -0.9315 -0.1210
vn -0.5000 0.7071 -0.5000
vn 0.7518 -0.0387 -0.6583
vn 0.7335 -0.6502 0.1981
vn 0.6827 0.6640 0.3049
vn -0.4572 -0.7073 -0.5392
vn 0.6119 0.1301 -0.7802
vn 0.0707 0.9939 0.0842
vn -0.8510 0.5166 0.0944
vn -0.8106 -0.0512 -0.5834
vn -0.7070 0.0002 0.7072
vn 0.5923 0.1363 -0.7941
vn 0.6922 -0.6771 0.2499
vn 0.5871 0.7117 0.3858
vn -0.3384 -0.5837 -0.7381
vn -0.0311 0.5624 0.8263
vn -0.7069 0.0003 0.7073
vn -0.7072 -0.0000 0.7070
vn -0.4075 -0.4512 -0.7940
vn -0.0510 -0.8068 -0.5886
vn -0.0463 -0.6132 -0.7886
vn -0.7066 0.0007 0.7076
vn 0.4991 -0.2588 -0.8270
vn 0.8467 -0.5130 -0.1415
vn -0.2592 0.3937 -0.8820
vn 0.8906 -0.1569 0.4268
vn 0.7324 -0.0661 -0.6777
vn 0.7274 -0.6588 0.1921
vn -0.2806 -0.6984 -0.6584
vn 0.5411 0.7046 0.4591
vn 0.6040 0.1190 -0.7881
vn -0.7096 -0.1095 -0.6960
vn -0.8380 0.5350 0.1074
vn -0.0774 0.9857 0.1498
vn 0.0514 0.5521 -0.8322
vn 0.7102 -0.0044 -0.7040
vn 0.5000 -0.7071 0.5000
vn -0.6211 -0.1096 0.7761
usemtl Standardmaterial
s 1
f 1/1/1 12/2/2 4/3/3 2/4/3
f 2/5/4 4/6/4 5/7/4 3/8/4
f 8/9/5 9/10/5 6/11/5 7/12/5
f 2/13/6 3/14/6 1/15/6
f 5/7/7 4/16/7 12/17/7
f 1/18/8 15/19/8 6/20/8
f 1/21/1 6/22/9 9/23/10 12/24/2
f 5/25/11 12/26/11 10/27/11
f 11/28/12 9/29/12 8/30/12
f 10/27/13 11/28/13 8/30/13 5/25/13
f 12/31/2 9/32/10 14/33/14 13/34/14
f 11/35/15 10/36/15 13/37/15 14/38/15
f 9/39/16 11/40/16 14/41/16
f 12/42/17 13/43/17 10/36/17
f 7/44/18 6/45/18 15/46/18
f 20/47/19 21/48/19 22/49/19 23/50/19
f 19/51/20 17/52/20 16/53/20 18/54/20
f 17/55/21 8/9/21 7/12/21 16/56/21
f 17/52/22 19/51/22 5/25/22 8/30/22
f 3/57/23 18/54/23 16/53/23 7/58/23
f 21/48/24 20/47/24 3/8/24 5/7/24
f 23/50/25 18/54/25 3/8/25 20/47/25
f 23/50/26 22/49/26 19/51/26 18/54/26
f 22/49/27 21/48/27 5/7/27 19/51/27
f 24/59/3 27/60/3 26/61/3 25/62/28
f 27/63/29 29/64/29 28/65/29 26/66/29
f 33/67/30 32/68/30 31/69/30 30/70/30
f 27/71/31 24/72/31 29/73/31
f 28/65/32 25/74/32 26/75/32
f 24/76/33 33/77/33 34/78/33
f 32/79/34 33/80/35 24/59/3 25/62/28
f 28/81/36 35/82/36 25/83/36
f 36/84/37 31/85/37 32/86/37
f 35/82/38 28/81/38 31/85/38 36/84/38
f 25/62/28 38/87/39 37/88/39 32/79/34
f 36/89/40 37/90/40 38/91/40 35/92/40
f 32/93/41 37/94/41 36/95/41
f 25/96/42 35/97/42 38/98/42
f 30/99/43 34/100/43 33/101/43
f 39/102/19 42/103/19 41/104/19 40/105/19
f 43/106/44 46/107/44 45/108/44 44/109/44
f 30/70/45 31/69/45 44/110/45 45/111/45
f 28/81/46 43/106/46 44/109/46 31/85/46
f 29/112/47 30/113/47 45/108/47 46/107/47
f 40/105/48 28/65/48 29/64/48 39/102/48
f 29/64/49 46/107/49 42/103/49 39/102/49
f 42/103/50 46/107/50 43/106/50 41/104/50
f 41/104/51 43/106/51 28/65/51 40/105/51
f 24/114/52 1/115/52 3/57/52 29/116/52
f 29/116/53 3/57/53 7/58/53 30/117/53
f 30/70/54 7/118/54 15/119/54 34/120/54
f 15/121/55 1/122/55 24/123/55 34/124/55
